<svg viewBox="0 0 32 32" xmlns="http://www.w3.org/2000/svg">
  <defs>
    <linearGradient id="fg" x1="0%" y1="0%" x2="100%" y2="100%">
      <stop offset="0%" stop-color="#c48f59"/>
      <stop offset="100%" stop-color="#d4a571"/>
    </linearGradient>
  </defs>

  <!-- Background -->
  <rect width="32" height="32" rx="6" fill="#0a0a0a"/>

  <!-- DC Monogram -->
  <g transform="translate(16, 16)">
    <!-- Circle -->
    <circle cx="0" cy="0" r="11" stroke="url(#fg)" stroke-width="1" fill="none"/>

    <!-- D -->
    <path d="M -4 -6 L -4 6 L -1 6 C 4 6 6 3 6 0 C 6 -3 4 -6 -1 -6 Z M -1.5 -3.5 L -1 -3.5 C 2.5 -3.5 3.5 -2 3.5 0 C 3.5 2 2.5 3.5 -1 3.5 L -1.5 3.5 Z" fill="url(#fg)"/>

    <!-- C -->
    <path d="M 3 -4 C 1 -6 -2 -6.5 -4.5 -5 C -7 -3.5 -8 -1.5 -8 0 C -8 1.5 -7 3.5 -4.5 5 C -2 6.5 1 6 3 4" stroke="url(#fg)" stroke-width="1.5" fill="none" stroke-linecap="round"/>
  </g>
</svg>
